<?xml version="1.0" encoding="UTF-8" standalone="no"?>
<svg
   xmlns:dc="http://purl.org/dc/elements/1.1/"
   xmlns:cc="http://creativecommons.org/ns#"
   xmlns:rdf="http://www.w3.org/1999/02/22-rdf-syntax-ns#"
   xmlns:svg="http://www.w3.org/2000/svg"
   xmlns="http://www.w3.org/2000/svg"
   id="svg8"
   version="1.1"
   viewBox="0 0 106.01874 53.054168"
   height="200.51968"
   width="400.70078">
  <defs
     id="defs2" />
  <metadata
     id="metadata5">
    <rdf:RDF>
      <cc:Work
         rdf:about="">
        <dc:format>image/svg+xml</dc:format>
        <dc:type
           rdf:resource="http://purl.org/dc/dcmitype/StillImage" />
        <dc:title></dc:title>
      </cc:Work>
    </rdf:RDF>
  </metadata>
  <g
     transform="translate(0,-243.94582)"
     id="layer1">
    <g
       id="flowRoot4518"
       style="font-style:normal;font-weight:normal;font-size:96px;line-height:1.25;font-family:sans-serif;letter-spacing:0px;word-spacing:0px;fill:#ffffff;fill-opacity:1;stroke:none"
       transform="matrix(0.43769293,0,0,0.43769293,-1.8994045,229.67069)"
       aria-label="swap">
      <path
         id="path4526"
         style="font-style:normal;font-variant:normal;font-weight:normal;font-stretch:normal;font-size:96px;font-family:'Fredoka One';-inkscape-font-specification:'Fredoka One';fill:#ffffff;fill-opacity:1"
         d="m 12.796266,106.71325 q -1.824,-1.152 -1.824,-3.648 0,-2.496 3.648,-7.583998 1.056,-1.632 3.36,-1.632 2.4,0 6.432,2.4 4.032,2.304 7.296,2.304 5.856,0 5.856,-2.304 0,-1.824 -6.432,-2.688 -6.048,-0.864 -12,-4.512 -2.784,-1.728 -4.608,-5.376 -1.824,-3.744 -1.824,-8.832 0,-15.168 20.832,-15.168 6.816,0 14.016,3.264 3.36,1.536 3.36,3.84 0,2.304 -2.112,5.664 -2.112,3.36 -4.32,3.36 -1.152,0 -4.32,-1.44 -3.072,-1.44 -6.72,-1.44 -5.664,0 -5.664,2.112 0,2.88 6.528,3.744 6.336,0.672 12.288,3.648 2.784,1.344 4.608,4.704 1.92,3.264 1.92,8.256 0,4.991998 -1.92,8.543998 -1.824,3.456 -5.184,5.184 -6.144,2.976 -15.456,2.976 -9.216,0 -17.76,-5.376 z" />
      <path
         id="path4528"
         style="font-style:normal;font-variant:normal;font-weight:normal;font-stretch:normal;font-size:96px;font-family:'Fredoka One';-inkscape-font-specification:'Fredoka One';fill:#ffffff;fill-opacity:1"
         d="m 121.17877,61.017252 q 6.144,2.688 6.144,6.624 0,1.632 -1.536,5.28 -1.536,3.552 -2.592,6.24 l -10.56,25.727998 q -1.44,4.224 -4.8,5.952 -1.44,0.672 -3.648,0.672 -2.208,0 -4.320004,-1.632 -2.016,-1.728 -2.688,-3.456 l -0.768,-1.632 q -0.768,-1.92 -5.664,-14.975998 -0.96,2.304 -2.88,7.584 -1.824,5.183998 -2.4,6.527998 -0.48,1.248 -0.672,1.728 -0.096,0.384 -0.768,1.536 -0.672,1.152 -1.536,2.016 -2.304,2.304 -5.28,2.304 -2.976,0 -4.992,-1.632 -2.016,-1.728 -2.688,-3.456 l -14.496,-35.327998 q -0.96,-2.88 -0.96,-3.744 0,-3.84 5.472,-6.048 3.072,-1.248 4.992,-1.248 1.92,0 3.072,0.864 1.248,0.768 1.728,1.632 0.48,0.768 0.768,1.632 1.632,3.84 6.816,18.048 l 5.664,-15.552 q 0.576,-1.92 2.112,-3.36 2.784,-2.784 5.664,-2.784 2.88,0 4.896,1.536 2.112,1.536 2.88,3.072 l 0.768,1.632 q 4.800004,13.44 5.664004,15.36 l 5.856,-15.936 q 2.304,-6.144 6.912,-6.144 1.824,0 3.84,0.96 z" />
      <path
         id="path4530"
         style="font-style:normal;font-variant:normal;font-weight:normal;font-stretch:normal;font-size:96px;font-family:'Fredoka One';-inkscape-font-specification:'Fredoka One';fill:#ffffff;fill-opacity:1"
         d="m 163.55677,66.009252 q 0.576,-5.376 7.584,-5.376 3.744,0 5.568,0.576 1.824,0.576 2.496,2.016 0.768,1.44 0.864,2.592 0.192,1.056 0.192,3.264 v 33.599998 q 0,2.208 -0.192,3.36 -0.096,1.056 -0.768,2.496 -1.344,2.496 -6.624,2.496 -5.184,0 -7.008,-1.248 -1.728,-1.344 -2.016,-3.84 -3.552,5.088 -11.904,5.088 -8.256,0 -15.36,-7.584 -7.104,-7.583998 -7.104,-17.567998 0,-10.08 7.104,-17.568 7.2,-7.584 15.744,-7.584 3.264,0 5.952,1.152 2.688,1.152 3.744,2.208 1.056,0.96 1.728,1.92 z m -17.472,19.968 q 0,3.168 2.496,5.76 2.496,2.496 6.048,2.496 3.552,0 5.856,-2.592 2.4,-2.592 2.4,-5.664 0,-3.168 -2.304,-5.856 -2.208,-2.688 -6.048,-2.688 -3.744,0 -6.144,2.688 -2.304,2.688 -2.304,5.856 z" />
      <path
         id="path4532"
         style="font-style:normal;font-variant:normal;font-weight:normal;font-stretch:normal;font-size:96px;font-family:'Fredoka One';-inkscape-font-specification:'Fredoka One';fill:#ffffff;fill-opacity:1"
         d="M 187.91227,124.95325 V 68.889252 q 0,-2.208 0.096,-3.264 0.192,-1.056 0.864,-2.4 1.344,-2.592 6.432,-2.592 5.088,0 6.816,1.344 1.824,1.248 2.112,3.744 3.648,-4.992 11.424,-4.992 7.872,0 14.88,7.392 7.008,7.392 7.008,17.184 0,9.792 -7.008,17.183998 -6.912,7.392 -14.784,7.392 -7.872,0 -11.424,-4.416 v 19.392 q 0,2.208 -0.192,3.264 -0.096,1.056 -0.864,2.4 -0.672,1.44 -2.4,2.016 -1.728,0.576 -4.704,0.576 -2.976,0 -4.8,-0.576 -1.728,-0.576 -2.496,-1.92 -0.672,-1.344 -0.864,-2.4 -0.096,-1.056 -0.096,-3.264 z m 19.008,-45.215998 q -2.208,2.592 -2.208,5.664 0,3.072 2.208,5.664 2.304,2.496 5.76,2.496 3.552,0 5.952,-2.496 2.496,-2.496 2.496,-5.664 0,-3.168 -2.304,-5.664 -2.304,-2.592 -6.048,-2.592 -3.648,0 -5.856,2.592 z" />
    </g>
  </g>
</svg>
