<?xml version="1.0" encoding="iso-8859-1"?>
<!-- Generator: Adobe Illustrator 21.0.0, SVG Export Plug-In . SVG Version: 6.00 Build 0)  -->
<svg xmlns="http://www.w3.org/2000/svg" xmlns:xlink="http://www.w3.org/1999/xlink" version="1.1" id="Capa_1" x="0px" y="0px" viewBox="0 0 512 512" style="enable-background:new 0 0 512 512;" xml:space="preserve" width="512" height="512">
<g>
	<path d="M499.379,169.782c5.661-4.661,7.123-12.731,3.457-19.081l-37.682-65.265c-3.666-6.351-11.387-9.118-18.253-6.547   l-12.83,4.807l54.73,94.793L499.379,169.782z"/>
	<path d="M293.56,357.058c-26.923,8.438-54.033,19.384-78.679,33.605l-13.042,7.529l55.89,96.805   c2.778,4.813,7.82,7.503,13.004,7.502c2.545,0,5.124-0.648,7.486-2.012l60.622-35c3.445-1.989,5.959-5.265,6.989-9.108   c1.029-3.843,0.49-7.937-1.499-11.382L293.56,357.058z"/>
	<path d="M64.041,277.938c-8.097,4.675-13.888,12.222-16.308,21.252c-1.049,3.914-1.407,7.903-1.099,11.827L7.61,333.112   c-3.48,1.971-6.03,5.25-7.082,9.11c-1.052,3.859-0.517,7.979,1.482,11.443l35.324,61.182c2.776,4.81,7.817,7.503,13.004,7.503   c2.504,0,5.043-0.628,7.377-1.949l38.337-21.705c6.271,5.064,14.096,7.803,22.07,7.803c5.934,0,11.943-1.508,17.44-4.682   l38.284-22.102l-71.525-123.876L64.041,277.938z"/>
	<path d="M509.99,275.187L360.921,16.998c-2.673-4.629-7.607-7.485-12.953-7.498c-0.013,0-0.025,0-0.038,0   c-5.331,0-10.263,2.831-12.953,7.436c-0.922,1.578-93.488,158.557-206.674,223.903l71.524,123.875   c63.15-36.458,140.242-52.746,193.795-59.989c58.421-7.903,102.349-7.056,103.034-7.041c5.405,0.128,10.483-2.685,13.247-7.348   C512.667,285.673,512.7,279.882,509.99,275.187z"/>
</g>















</svg>
